<?xml version="1.0" standalone="no"?>
<!DOCTYPE svg PUBLIC "-//W3C//DTD SVG 20010904//EN"
 "http://www.w3.org/TR/2001/REC-SVG-20010904/DTD/svg10.dtd">
<svg version="1.0" xmlns="http://www.w3.org/2000/svg"
 width="340.000000pt" height="340.000000pt" viewBox="0 0 340.000000 340.000000"
 preserveAspectRatio="xMidYMid meet">

<g transform="translate(0.000000,340.000000) scale(0.100000,-0.100000)"
fill="#000000" stroke="none">
<path d="M1594 3106 c-193 -44 -349 -207 -385 -400 -7 -37 -9 -153 -7 -305 4
-227 6 -250 27 -303 53 -136 155 -243 281 -295 94 -38 247 -44 340 -13 136 46
239 134 296 254 47 100 54 149 54 396 0 247 -7 296 -54 397 -39 81 -129 179
-198 214 -116 59 -246 79 -354 55z m231 -68 c98 -25 215 -119 261 -209 47 -93
54 -146 54 -389 0 -255 -8 -307 -65 -399 -85 -140 -214 -214 -375 -214 -202 0
-374 133 -424 328 -22 84 -23 485 -1 570 40 151 143 260 292 309 84 27 165 28
258 4z"/>
<path d="M1603 2985 c-29 -8 -70 -23 -90 -34 -54 -27 -129 -111 -161 -178 -27
-57 -27 -60 -30 -308 -2 -175 0 -263 9 -295 32 -117 101 -198 218 -253 158
-75 369 -13 469 138 57 87 64 128 60 409 -3 236 -4 254 -26 300 -50 109 -147
192 -257 221 -72 18 -123 18 -192 0z m194 -61 c61 -21 133 -73 166 -121 47
-69 63 -65 -260 -67 -200 -1 -293 2 -293 10 0 5 13 31 29 56 71 111 229 165
358 122z m223 -371 c0 -107 -2 -123 -16 -123 -16 0 -70 52 -111 108 -15 20
-37 33 -69 41 -60 15 -102 2 -143 -45 -17 -19 -36 -34 -43 -34 -7 0 -40 -28
-72 -62 -54 -56 -60 -66 -63 -112 -6 -69 22 -102 99 -116 60 -11 373 -8 401 5
16 7 17 4 11 -21 -12 -51 -51 -119 -91 -159 -59 -60 -133 -89 -223 -90 -171 0
-298 116 -321 293 -10 79 -12 294 -3 378 l6 59 319 0 319 0 0 -122z m-196 -33
c15 -5 34 -25 43 -45 9 -19 25 -37 35 -41 10 -3 21 -16 24 -30 5 -18 13 -24
32 -24 50 0 79 -54 50 -92 -16 -20 -35 -21 -255 -19 l-173 1 -16 25 c-14 21
-15 31 -5 51 6 14 20 28 31 31 11 3 20 11 20 18 0 26 32 47 62 41 23 -5 28 -2
28 15 0 26 52 79 79 79 11 0 31 -4 45 -10z"/>
<path d="M1584 2835 c-4 -8 -1 -22 6 -30 18 -22 192 -21 215 1 12 12 13 19 4
30 -17 21 -217 20 -225 -1z"/>
<path d="M1312 1353 c-59 -29 -77 -66 -80 -171 -5 -116 11 -166 65 -202 31
-21 48 -25 109 -25 59 1 78 5 107 25 48 33 69 82 65 150 l-3 55 -93 3 -93 3 3
-43 c3 -42 4 -43 41 -46 40 -3 45 -12 21 -36 -21 -22 -77 -20 -97 2 -20 22
-24 150 -7 183 17 30 83 26 109 -7 20 -25 21 -26 63 -12 24 8 44 21 46 29 4
26 -37 78 -74 94 -47 20 -140 19 -182 -2z"/>
<path d="M1704 1356 c-57 -25 -79 -69 -83 -170 -6 -149 25 -205 127 -228 101
-22 190 22 213 107 15 55 7 192 -14 232 -24 46 -82 73 -154 73 -32 -1 -72 -7
-89 -14z m146 -105 c5 -11 10 -53 10 -95 0 -66 -3 -77 -22 -90 -29 -21 -67
-20 -90 1 -14 13 -18 31 -18 90 0 98 9 113 65 113 34 0 47 -5 55 -19z"/>
<path d="M10 1316 l0 -45 53 -3 52 -3 3 -152 3 -153 48 0 c35 0 51 4 55 16 3
9 6 78 6 155 l0 139 50 0 50 0 0 45 0 45 -160 0 -160 0 0 -44z"/>
<path d="M377 1353 c-10 -10 -8 -366 2 -382 7 -10 33 -12 117 -9 129 4 163 19
195 86 18 37 21 57 17 133 -5 100 -19 129 -78 160 -28 15 -57 19 -141 19 -58
0 -109 -3 -112 -7z m210 -105 c8 -7 13 -35 13 -81 0 -87 -14 -107 -77 -107
l-43 0 0 98 c0 54 3 102 8 106 9 10 82 -2 99 -16z"/>
<path d="M767 1353 c-9 -8 -9 -356 -1 -377 4 -12 20 -16 55 -16 l49 0 0 74 c0
41 4 77 9 80 16 10 46 -23 76 -85 l30 -64 58 -3 c43 -2 57 0 57 11 0 14 -80
168 -100 192 -8 9 4 36 46 101 l55 89 -52 3 c-28 2 -57 1 -64 -1 -6 -3 -31
-37 -54 -76 -24 -39 -47 -68 -52 -65 -5 3 -9 36 -9 75 l0 69 -48 0 c-27 0 -52
-3 -55 -7z"/>
<path d="M2022 1163 l3 -198 130 0 130 0 3 48 3 47 -80 0 -81 0 0 150 0 150
-55 0 -55 0 2 -197z"/>
<path d="M2337 1353 c-10 -10 -8 -366 2 -382 7 -10 33 -12 117 -10 130 5 172
24 198 89 25 62 21 175 -6 230 -34 66 -70 80 -199 80 -58 0 -109 -3 -112 -7z
m210 -109 c7 -10 13 -46 13 -83 0 -81 -15 -101 -77 -101 l-43 0 0 98 c0 54 3
102 8 106 12 13 86 -2 99 -20z"/>
<path d="M2720 1160 l0 -201 143 3 142 3 0 45 0 45 -88 3 -88 3 3 27 c3 26 5
27 71 30 l67 3 0 44 0 45 -71 0 -70 0 3 28 c3 27 4 27 86 30 l82 3 0 44 0 45
-140 0 -140 0 0 -200z"/>
<path d="M3060 1160 l0 -200 51 0 52 0 -5 124 -5 124 33 -67 c18 -36 50 -91
71 -121 37 -54 39 -55 88 -55 l50 0 3 198 2 197 -49 0 c-47 0 -50 -2 -56 -31
-7 -32 1 -132 15 -186 11 -44 4 -42 -15 3 -8 20 -40 76 -71 125 l-57 89 -53 0
-54 0 0 -200z"/>
<path d="M2356 689 c-3 -17 -6 -44 -6 -60 0 -37 25 -29 33 10 3 16 9 40 13 55
5 21 3 26 -14 26 -14 0 -21 -9 -26 -31z"/>
<path d="M390 653 c-6 -32 -13 -69 -16 -82 -5 -23 -4 -23 51 -19 68 6 86 21
92 82 7 61 -6 76 -68 76 l-48 0 -11 -57z m90 -5 c0 -31 -19 -58 -41 -58 -18 0
-19 4 -13 38 9 49 11 51 34 45 11 -3 20 -14 20 -25z"/>
<path d="M586 693 c-4 -16 -26 -131 -26 -140 0 -2 9 -3 20 -3 13 0 22 9 26 25
3 14 10 25 15 25 5 0 14 -11 19 -25 6 -16 17 -25 30 -25 18 0 20 4 15 33 -5
24 -2 37 9 46 19 16 21 52 4 69 -7 7 -33 12 -59 12 -37 0 -49 -4 -53 -17z m72
-36 c2 -12 -3 -17 -17 -17 -12 0 -21 6 -21 13 0 31 32 34 38 4z"/>
<path d="M760 653 c-6 -32 -13 -68 -16 -80 -4 -22 -1 -23 56 -23 53 0 60 2 60
20 0 16 -7 20 -35 20 -19 0 -35 5 -35 10 0 6 13 10 29 10 17 0 31 6 35 16 9
23 8 24 -25 24 -20 0 -29 4 -26 13 4 12 10 14 55 16 12 1 22 7 22 16 0 11 -13
15 -54 15 l-55 0 -11 -57z"/>
<path d="M941 634 c-23 -41 -41 -77 -41 -80 0 -11 39 -2 50 11 7 8 21 15 32
15 10 0 21 -7 24 -15 7 -17 44 -21 44 -4 0 5 -5 41 -11 80 -11 62 -14 69 -35
69 -18 0 -31 -16 -63 -76z m59 1 c0 -15 -6 -25 -15 -25 -12 0 -13 4 -3 25 6
14 13 25 15 25 1 0 3 -11 3 -25z"/>
<path d="M1112 640 c-15 -91 -16 -90 8 -90 15 0 20 7 20 29 0 36 16 49 25 21
8 -26 22 -25 46 3 l19 22 -6 -37 c-6 -34 -4 -38 15 -38 11 0 21 1 21 3 0 9 22
124 26 140 4 13 0 17 -18 17 -15 0 -31 -12 -46 -35 -28 -44 -38 -44 -46 0 -6
28 -12 35 -29 35 -20 0 -24 -8 -35 -70z"/>
<path d="M1410 696 c0 -7 8 -16 19 -19 16 -4 18 -10 10 -48 -13 -67 -11 -79
10 -79 15 0 21 12 31 65 11 58 15 65 36 65 15 0 24 6 24 15 0 12 -14 15 -65
15 -49 0 -65 -3 -65 -14z"/>
<path d="M1595 690 c-22 -25 -32 -104 -15 -125 7 -9 29 -15 50 -15 30 0 43 6
59 26 21 26 28 84 15 118 -9 24 -86 21 -109 -4z m70 -21 c4 -6 4 -26 1 -45 -6
-28 -11 -34 -31 -34 -28 0 -32 20 -15 64 10 27 34 34 45 15z"/>
<path d="M1841 647 c-15 -87 -14 -97 8 -97 14 0 21 8 23 28 2 22 8 28 36 30
37 4 46 32 9 32 -29 0 -37 7 -30 26 3 8 19 14 39 14 24 0 34 5 34 15 0 11 -13
15 -54 15 l-54 0 -11 -63z"/>
<path d="M2016 693 c-4 -16 -26 -131 -26 -140 0 -2 25 -3 55 -3 48 0 55 2 55
20 0 16 -7 20 -31 20 -31 0 -31 1 -24 38 3 20 9 47 12 60 4 17 1 22 -15 22
-11 0 -23 -8 -26 -17z"/>
<path d="M2181 663 c14 -32 18 -58 14 -80 -5 -28 -3 -33 13 -33 20 0 32 18 32
47 0 9 16 35 35 59 41 50 42 54 12 54 -14 0 -29 -10 -39 -27 l-16 -27 -13 27
c-8 18 -20 27 -35 27 l-23 0 20 -47z"/>
<path d="M2337 583 c-16 -15 -6 -34 15 -31 29 4 38 38 10 38 -10 0 -22 -3 -25
-7z"/>
<path d="M2886 429 c-10 -51 -7 -79 8 -79 7 0 16 13 19 29 3 16 9 40 13 55 5
21 3 26 -14 26 -14 0 -21 -9 -26 -31z"/>
<path d="M920 393 c-6 -32 -13 -68 -16 -81 -4 -20 -1 -23 18 -20 14 2 24 12
28 28 4 18 14 26 35 30 38 7 44 28 8 32 -43 5 -36 32 10 36 24 2 37 8 37 18 0
10 -14 14 -54 14 l-55 0 -11 -57z"/>
<path d="M1082 380 c-7 -39 -12 -75 -12 -81 0 -6 21 -9 52 -7 41 2 54 7 56 21
3 13 -3 17 -27 17 -35 0 -38 13 -22 83 8 34 7 37 -13 37 -19 0 -23 -8 -34 -70z"/>
<path d="M1240 445 c0 -3 7 -22 15 -42 8 -19 15 -53 15 -74 0 -32 3 -39 20
-39 14 0 20 7 20 21 0 25 14 53 52 102 l30 37 -26 0 c-16 0 -32 -9 -43 -26
l-16 -26 -14 26 c-11 22 -53 38 -53 21z"/>
<path d="M1500 436 c0 -7 10 -16 21 -19 14 -4 20 -11 16 -20 -3 -8 -9 -35 -12
-61 -7 -42 -5 -46 13 -46 17 0 22 9 28 48 9 61 20 82 44 82 11 0 20 7 20 15 0
12 -14 15 -65 15 -49 0 -65 -3 -65 -14z"/>
<path d="M1693 442 c-29 -19 -44 -117 -21 -140 7 -7 29 -12 49 -12 51 0 79 35
79 100 0 34 -4 50 -16 54 -22 8 -77 7 -91 -2z m65 -46 c8 -38 -7 -66 -34 -66
-25 0 -26 2 -21 37 9 51 47 71 55 29z"/>
<path d="M1931 387 c-17 -98 -17 -97 33 -97 57 0 86 24 96 78 11 61 -7 82 -70
82 l-48 0 -11 -63z m89 -6 c0 -29 -16 -51 -37 -51 -16 0 -18 61 -2 77 18 18
39 4 39 -26z"/>
<path d="M2120 393 c-6 -32 -13 -68 -16 -81 -4 -20 -1 -23 18 -20 15 2 24 11
26 26 2 12 10 22 17 22 7 0 15 -10 17 -22 2 -15 11 -24 27 -26 22 -3 23 -1 18
28 -5 22 -2 36 8 47 18 17 20 54 3 71 -7 7 -33 12 -59 12 l-48 0 -11 -57z m80
1 c0 -8 -9 -14 -20 -14 -19 0 -27 19 -14 33 10 9 34 -4 34 -19z"/>
<path d="M2302 386 c-19 -99 -20 -96 43 -96 48 0 55 2 55 20 0 16 -7 20 -37
20 -40 0 -35 16 7 22 36 4 40 38 5 38 -17 0 -25 5 -22 13 4 12 8 13 47 16 11
0 20 8 20 16 0 11 -13 15 -53 15 l-54 0 -11 -64z"/>
<path d="M2480 370 c-36 -71 -38 -80 -21 -80 10 0 24 7 31 15 7 8 23 15 36 15
15 0 24 -6 24 -15 0 -8 9 -15 20 -15 24 0 25 18 8 102 -10 50 -15 58 -35 58
-18 0 -30 -15 -63 -80z m56 -18 c-12 -11 -18 7 -10 30 l8 23 4 -23 c2 -13 1
-26 -2 -30z"/>
<path d="M2667 443 c-3 -5 -8 -30 -11 -58 -4 -27 -10 -60 -13 -72 -4 -18 -1
-23 15 -23 16 0 23 9 30 43 9 40 9 41 17 15 4 -16 12 -28 18 -28 6 0 22 12 34
28 13 15 21 20 19 12 -18 -64 -17 -72 6 -68 18 2 24 12 30 48 4 25 10 60 13
78 5 27 3 32 -14 32 -13 0 -30 -14 -43 -35 -27 -41 -39 -40 -52 3 -8 30 -38
44 -49 25z"/>
<path d="M2867 323 c-14 -13 -6 -33 12 -33 16 0 31 18 31 36 0 7 -36 5 -43 -3z"/>
</g>
</svg>
