<?xml version="1.0" encoding="utf-8"?>
<!-- Svg Vector Icons : http://www.onlinewebfonts.com/icon -->
<!DOCTYPE svg PUBLIC "-//W3C//DTD SVG 1.1//EN" "http://www.w3.org/Graphics/SVG/1.1/DTD/svg11.dtd">
<svg version="1.1" xmlns="http://www.w3.org/2000/svg" xmlns:xlink="http://www.w3.org/1999/xlink" x="0px" y="0px" viewBox="0 0 1000 1000" enable-background="new 0 0 1000 1000" xml:space="preserve">
<metadata> Svg Vector Icons : http://www.onlinewebfonts.com/icon </metadata>
<g><path d="M715.5,348.7"/><path d="M990,878.2V121.8H10v756.4H990L990,878.2z M910.8,193.3v608.3h-12.9c0,0-292.3-165-323.1-181.6c-30.7-16.6-41.1-24.8-53.8-24.1c-27.4,0.4-45.1,17.6-46.3,19l-56.3,49.1c-11.4,10.8-20.9,1.4-25.5-3.2c-34.4-34.5-101.1-94-109.5-101.4c-5.5-5.5-25-22.9-53.2-23.5c-14.7-0.7-37,3.9-59.5,26.4c-20.9,20.9-54.8,55.9-86.2,84.5V193.3H910.8z M84.5,801.6v-72c24.1-20.1,94.4-81.2,127.6-112c4.3-3.9,10.2-9.3,16.7-8.6c6.9,0,13.1,5.6,13.2,5.6l0,0l2.2,2c0.7,0.6,73.2,60.3,108,92.6c21.2,19.7,43,22.6,56.6,23.5c30-0.4,49.9-18.9,50.1-19.3l56.3-45.4c5.8-5.1,11.9-2.6,14.9-1c3,1.7,244.1,134.7,244.1,134.7H84.5L84.5,801.6z M699.2,554.9c82.9,0,150.4-67.6,150.4-150.6c0-83-67.5-150.6-150.4-150.6c-82.9,0-150.4,67.6-150.4,150.6C548.7,487.3,616.3,554.9,699.2,554.9L699.2,554.9z M699.2,317.2c47.9,0,86.9,39.1,86.9,87.1c0,48-39,87.1-86.9,87.1c-47.9,0-86.9-39.1-86.9-87.1C612.3,356.2,651.3,317.2,699.2,317.2L699.2,317.2z"/></g>
</svg>